<?xml version="1.0" standalone="yes"?>

<svg version="1.1" viewBox="0.0 0.0 960.0 540.0" fill="none" stroke="none" stroke-linecap="square" stroke-miterlimit="10" xmlns="http://www.w3.org/2000/svg" xmlns:xlink="http://www.w3.org/1999/xlink"><clipPath id="g4df65e693_0102.0"><path d="m0 0l960.0 0l0 540.0l-960.0 0l0 -540.0z" clip-rule="nonzero"></path></clipPath><g clip-path="url(#g4df65e693_0102.0)"><path fill="#ffffff" d="m0 0l960.0 0l0 540.0l-960.0 0z" fill-rule="nonzero"></path><path fill="#000000" fill-opacity="0.0" d="m146.09448 46.569553l767.33856 0l0 48.000004l-767.33856 0z" fill-rule="nonzero"></path><path fill="#000000" d="m165.4226 69.21893q-0.875 -0.4375 -2.0625 -0.4375q-0.984375 0 -1.765625 0.421875q-0.765625 0.421875 -1.3125 1.109375q-0.53125 0.6875 -0.828125 1.578125q-0.28125 0.875 -0.28125 1.8125l0 3.53125l2.46875 0l0 1.375l-6.546875 0l0 -1.375l2.46875 0l0 -8.171875l-2.46875 0l0 -1.375l4.078125 0l0 2.734375q1.109375 -3.0 4.1875 -3.0q0.828125 0 1.4375 0.109375q0.625 0.109375 1.15625 0.375l-0.53125 1.3125zm4.3828125 4.484375q0.171875 1.734375 1.265625 2.765625q1.09375 1.03125 2.828125 1.03125q1.234375 0 2.1875 -0.5q0.96875 -0.5 1.453125 -1.25l1.125 0.765625q-0.828125 1.15625 -1.96875 1.765625q-1.125 0.59375 -2.796875 0.59375q-1.265625 0 -2.328125 -0.421875q-1.046875 -0.421875 -1.8125 -1.171875q-0.765625 -0.765625 -1.1875 -1.796875q-0.421875 -1.046875 -0.421875 -2.328125q0 -1.234375 0.375 -2.28125q0.390625 -1.0625 1.109375 -1.828125q0.71875 -0.765625 1.75 -1.1875q1.03125 -0.4375 2.3125 -0.4375q1.390625 0 2.4375 0.46875q1.046875 0.46875 1.734375 1.296875q0.703125 0.828125 1.03125 1.984375q0.34375 1.140625 0.34375 2.53125l-9.4375 0zm7.734375 -1.359375q-0.265625 -1.796875 -1.296875 -2.671875q-1.03125 -0.890625 -2.546875 -0.890625q-0.78125 0 -1.4375 0.265625q-0.65625 0.25 -1.15625 0.71875q-0.5 0.46875 -0.84375 1.125q-0.34375 0.65625 -0.4375 1.453125l7.71875 0zm3.7265625 3.3125q0 -1.03125 0.515625 -1.71875q0.53125 -0.703125 1.359375 -1.109375q0.84375 -0.40625 1.921875 -0.578125q1.09375 -0.1875 2.21875 -0.1875q0.421875 0 0.765625 0.015625q0.359375 0 0.65625 0.03125q0.3125 0.015625 0.625 0.0625q0.328125 0.03125 0.703125 0.078125l0 -0.796875q0 -0.796875 -0.34375 -1.3125q-0.34375 -0.515625 -0.859375 -0.8125q-0.5 -0.296875 -1.046875 -0.421875q-0.546875 -0.125 -0.9375 -0.125q-1.21875 0 -2.25 0.328125q-1.03125 0.328125 -1.921875 0.890625l-0.734375 -1.21875q0.984375 -0.59375 2.203125 -0.96875q1.234375 -0.390625 2.703125 -0.390625q0.890625 0 1.75 0.234375q0.859375 0.234375 1.546875 0.703125q0.6875 0.46875 1.09375 1.25q0.40625 0.765625 0.40625 1.84375l0 7.15625l-1.609375 0l0 -1.828125q-0.421875 0.53125 -0.953125 0.9375q-0.53125 0.390625 -1.125 0.640625q-0.578125 0.25 -1.171875 0.375q-0.578125 0.140625 -1.109375 0.140625q-2.171875 0 -3.296875 -0.828125q-1.109375 -0.828125 -1.109375 -2.390625zm4.40625 1.84375q1.0 0 1.796875 -0.296875q0.8125 -0.296875 1.375 -0.734375q0.5625 -0.453125 0.875 -0.953125q0.3125 -0.5 0.3125 -0.921875l0 -1.03125q-0.78125 -0.109375 -1.515625 -0.125q-0.71875 -0.015625 -1.234375 -0.015625q-0.875 0 -1.6875 0.125q-0.796875 0.109375 -1.390625 0.375q-0.59375 0.265625 -0.96875 0.6875q-0.359375 0.421875 -0.359375 1.046875q0 0.6875 0.671875 1.265625q0.6875 0.578125 2.125 0.578125zm19.070312 1.109375l-1.609375 0l0 -1.015625q-0.6875 0.625 -1.515625 0.953125q-0.828125 0.328125 -1.703125 0.328125q-1.296875 0 -2.328125 -0.421875q-1.03125 -0.421875 -1.75 -1.171875q-0.703125 -0.765625 -1.09375 -1.8125q-0.375 -1.0625 -0.375 -2.3125q0 -1.234375 0.375 -2.296875q0.390625 -1.0625 1.09375 -1.8125q0.71875 -0.765625 1.75 -1.1875q1.03125 -0.4375 2.328125 -0.4375q0.875 0 1.703125 0.3125q0.828125 0.3125 1.515625 0.9375l0 -3.984375l-2.1875 0l0 -1.3750038l3.796875 0l0 15.296879zm-1.609375 -8.375q-0.6875 -0.765625 -1.515625 -1.109375q-0.8125 -0.34375 -1.71875 -0.34375q-0.96875 0 -1.703125 0.34375q-0.71875 0.34375 -1.21875 0.9375q-0.484375 0.578125 -0.75 1.375q-0.25 0.78125 -0.25 1.71875q0 0.9375 0.25 1.734375q0.265625 0.78125 0.75 1.375q0.5 0.578125 1.21875 0.921875q0.734375 0.34375 1.703125 0.34375q1.84375 0 3.234375 -1.46875l0 -5.828125zm11.7890625 12.71875q-1.25 -0.984375 -2.234375 -2.234375q-0.96875 -1.234375 -1.625 -2.65625q-0.65625 -1.421875 -1.015625 -2.96875q-0.34375 -1.546875 -0.34375 -3.125q0 -1.59375 0.34375 -3.125q0.359375 -1.546875 1.015625 -2.953125q0.65625 -1.421875 1.625 -2.6562538q0.984375 -1.25 2.234375 -2.234375l0.84375 1.046875q-1.109375 0.890625 -1.984375 2.0156288q-0.875 1.125 -1.484375 2.40625q-0.59375 1.28125 -0.90625 2.6875q-0.3125 1.390625 -0.3125 2.8125q0 1.4375 0.3125 2.828125q0.3125 1.390625 0.90625 2.671875q0.609375 1.265625 1.46875 2.40625q0.859375 1.140625 2.0 2.03125l-0.84375 1.046875zm14.4140625 -13.078125l-3.734375 0l0 -2.546875q0 -0.8125 0.234375 -1.53125q0.234375 -0.71875 0.703125 -1.25q0.46875 -0.546875 1.171875 -0.8750038q0.703125 -0.328125 1.625 -0.328125l0 1.3593788q-2.375 0 -2.375 2.625l0 0.359375l2.375 0l0 2.1875zm14.9765625 -6.531254l-8.984375 18.078129l-1.140625 -0.609375l8.96875 -18.078129l1.15625 0.609375zm12.8359375 15.265629l-1.609375 0l0 -6.734375q0 -1.46875 -0.640625 -2.28125q-0.625 -0.8125 -2.046875 -0.8125q-0.890625 0 -1.609375 0.421875q-0.71875 0.40625 -1.234375 1.09375q-0.5 0.6875 -0.765625 1.578125q-0.25 0.875 -0.25 1.828125l0 4.90625l-1.609375 0l0 -15.296879l1.609375 0l0 7.109379q1.15625 -3.0 4.125 -3.0q4.03125 0 4.03125 4.453125l0 6.734375zm9.3046875 -13.109375l-2.171875 0l0 -2.1875038l2.171875 0l0 2.1875038zm2.1875 13.109375l-6.546875 0l0 -1.375l2.46875 0l0 -8.171875l-2.46875 0l0 -1.375l4.078125 0l0 9.546875l2.46875 0l0 1.375zm14.9921875 -3.03125q0 0.96875 -0.484375 1.609375q-0.46875 0.625 -1.234375 1.0q-0.75 0.375 -1.6875 0.53125q-0.921875 0.15625 -1.8125 0.15625q-1.484375 0 -2.96875 -0.421875q-1.46875 -0.4375 -2.5625 -1.140625l0.71875 -1.390625q1.21875 0.765625 2.390625 1.171875q1.171875 0.40625 2.421875 0.40625q3.625 0 3.625 -1.875q0 -0.453125 -0.3125 -0.734375q-0.296875 -0.296875 -0.796875 -0.46875q-0.5 -0.1875 -1.15625 -0.28125q-0.640625 -0.109375 -1.359375 -0.203125q-0.921875 -0.140625 -1.828125 -0.3125q-0.890625 -0.171875 -1.640625 -0.515625q-0.734375 -0.359375 -1.1875 -0.9375q-0.453125 -0.59375 -0.453125 -1.5625q0 -0.8125 0.40625 -1.40625q0.421875 -0.609375 1.109375 -1.0q0.703125 -0.40625 1.640625 -0.59375q0.9375 -0.1875 1.953125 -0.1875q1.4375 0 2.578125 0.34375q1.140625 0.328125 2.046875 0.953125l-0.640625 1.25q-0.9375 -0.65625 -1.90625 -0.921875q-0.953125 -0.265625 -2.078125 -0.265625q-0.5 0 -1.125 0.09375q-0.609375 0.09375 -1.140625 0.3125q-0.53125 0.203125 -0.890625 0.5625q-0.34375 0.34375 -0.34375 0.859375q0 0.46875 0.296875 0.75q0.296875 0.265625 0.796875 0.453125q0.5 0.171875 1.15625 0.28125q0.65625 0.109375 1.359375 0.203125q0.890625 0.125 1.796875 0.296875q0.921875 0.171875 1.65625 0.515625q0.75 0.34375 1.203125 0.9375q0.453125 0.578125 0.453125 1.53125zm13.5234375 -0.453125q-0.1875 1.71875 -1.359375 2.734375q-1.171875 1.015625 -2.90625 1.015625q-0.96875 0 -1.765625 -0.3125q-0.796875 -0.3125 -1.359375 -0.875q-0.5625 -0.5625 -0.875 -1.359375q-0.3125 -0.796875 -0.3125 -1.734375l0 -5.53125l-2.46875 0l0 -1.375l2.46875 0l0 -4.375004l1.609375 0l0 4.375004l4.65625 0l0 1.375l-4.65625 0l0 5.53125q0 0.609375 0.1875 1.140625q0.203125 0.515625 0.546875 0.921875q0.34375 0.390625 0.828125 0.625q0.5 0.21875 1.140625 0.21875q1.1875 0 1.984375 -0.734375q0.8125 -0.75 0.921875 -1.9375l1.359375 0.296875zm13.2578125 -1.9375q0 1.265625 -0.40625 2.3125q-0.40625 1.046875 -1.15625 1.796875q-0.75 0.734375 -1.8125 1.15625q-1.046875 0.421875 -2.359375 0.421875q-1.265625 0 -2.328125 -0.421875q-1.046875 -0.421875 -1.8125 -1.15625q-0.75 -0.75 -1.15625 -1.796875q-0.40625 -1.046875 -0.40625 -2.3125q0 -1.25 0.40625 -2.3125q0.40625 -1.078125 1.15625 -1.828125q0.765625 -0.765625 1.8125 -1.1875q1.0625 -0.4375 2.328125 -0.4375q1.3125 0 2.359375 0.4375q1.0625 0.421875 1.8125 1.1875q0.75 0.75 1.15625 1.828125q0.40625 1.0625 0.40625 2.3125zm-1.609375 0q0 -0.9375 -0.28125 -1.734375q-0.265625 -0.796875 -0.8125 -1.390625q-0.53125 -0.59375 -1.296875 -0.9375q-0.765625 -0.34375 -1.734375 -0.34375q-0.953125 0 -1.71875 0.34375q-0.765625 0.34375 -1.296875 0.9375q-0.53125 0.59375 -0.8125 1.390625q-0.265625 0.796875 -0.265625 1.734375q0 0.9375 0.265625 1.734375q0.28125 0.78125 0.8125 1.359375q0.53125 0.5625 1.296875 0.890625q0.765625 0.328125 1.71875 0.328125q0.96875 0 1.734375 -0.328125q0.765625 -0.328125 1.296875 -0.890625q0.546875 -0.578125 0.8125 -1.359375q0.28125 -0.796875 0.28125 -1.734375zm13.8359375 -3.96875q-0.875 -0.4375 -2.0625 -0.4375q-0.984375 0 -1.765625 0.421875q-0.765625 0.421875 -1.3125 1.109375q-0.53125 0.6875 -0.828125 1.578125q-0.28125 0.875 -0.28125 1.8125l0 3.53125l2.46875 0l0 1.375l-6.546875 0l0 -1.375l2.46875 0l0 -8.171875l-2.46875 0l0 -1.375l4.078125 0l0 2.734375q1.109375 -3.0 4.1875 -3.0q0.828125 0 1.4375 0.109375q0.625 0.109375 1.15625 0.375l-0.53125 1.3125zm14.0390625 -1.53125l-5.90625 13.6875q-0.453125 1.15625 -1.296875 1.5q-0.828125 0.359375 -1.828125 0.359375q-1.125 0 -2.265625 -0.40625l0.328125 -1.375q0.546875 0.234375 1.078125 0.328125q0.53125 0.09375 0.859375 0.09375q0.796875 0 1.09375 -0.390625q0.296875 -0.375 0.515625 -0.90625l0.671875 -1.65625l-4.875 -11.234375l1.890625 0l3.9375 9.546875l3.875 -9.546875l1.921875 0zm12.4453125 -4.343754l-8.984375 18.078129l-1.140625 -0.609375l8.96875 -18.078129l1.15625 0.609375zm12.8359375 3.9375038q0 0.625 -0.109375 1.140625q-0.109375 0.5 -0.40625 1.015625q-0.28125 0.515625 -0.75 1.09375q-0.46875 0.5625 -1.171875 1.296875l-5.34375 5.40625l6.46875 0l0 -3.0l1.359375 0l0 4.375l-9.9375 0l0 -1.421875l5.953125 -6.046875q0.46875 -0.453125 0.875 -0.90625q0.421875 -0.46875 0.75 -0.9375q0.328125 -0.46875 0.515625 -0.96875q0.1875 -0.5 0.1875 -1.046875q0 -1.40625 -0.9375 -2.125q-0.921875 -0.734375 -2.296875 -0.734375q-1.921875 0 -2.90625 1.078125q-0.984375 1.0625 -0.984375 3.078125l-1.484375 0q0 -2.59375 1.375 -4.046875q1.390625 -1.4687538 4.0 -1.4687538q0.984375 0 1.859375 0.28125q0.875 0.28125 1.546875 0.8281288q0.671875 0.53125 1.046875 1.3125q0.390625 0.78125 0.390625 1.796875zm3.9765625 3.703125q0 1.6875 0.40625 3.1875l7.171875 -7.5625q-0.5625 -1.0625 -1.390625 -1.625q-0.828125 -0.5625 -1.9375 -0.5625q-2.0625 0 -3.15625 1.765625q-1.09375 1.75 -1.09375 4.796875zm0.96875 4.484375q1.15625 2.0625 3.28125 2.0625q2.015625 0 3.125 -1.75q1.125 -1.75 1.125 -4.796875q0 -0.84375 -0.109375 -1.59375q-0.109375 -0.765625 -0.296875 -1.453125l-7.125 7.53125zm-2.578125 -4.484375q0 -1.546875 0.328125 -2.96875q0.328125 -1.4375 1.015625 -2.53125q0.703125 -1.109375 1.8125 -1.7656288q1.125 -0.65625 2.703125 -0.65625q1.59375 0 2.703125 0.65625q1.125 0.6562538 1.828125 1.7656288q0.703125 1.09375 1.015625 2.53125q0.3125 1.421875 0.3125 2.96875q0 1.53125 -0.3125 2.96875q-0.3125 1.421875 -1.015625 2.515625q-0.6875 1.078125 -1.8125 1.75q-1.109375 0.65625 -2.71875 0.65625q-1.59375 0 -2.71875 -0.65625q-1.125 -0.671875 -1.828125 -1.75q-0.6875 -1.09375 -1.0 -2.515625q-0.3125 -1.4375 -0.3125 -2.96875zm22.226562 7.625l-6.546875 0l0 -1.375l2.46875 0l0 -10.4375q-0.21875 0.484375 -0.671875 1.03125q-0.453125 0.53125 -1.078125 0.984375q-0.625 0.453125 -1.375 0.765625q-0.734375 0.296875 -1.53125 0.296875l0 -1.65625q0.71875 0 1.53125 -0.4375q0.828125 -0.453125 1.515625 -1.140625q0.6875 -0.703125 1.140625 -1.578125q0.46875 -0.875 0.46875 -1.7500038l1.609375 0l0 13.921879l2.46875 0l0 1.375zm15.2890625 0l-6.546875 0l0 -1.375l2.46875 0l0 -3.0l-6.84375 0l0 -1.390625l6.40625 -9.531254l2.046875 0l0 9.531254l2.46875 0l0 1.390625l-2.46875 0l0 3.0l2.46875 0l0 1.375zm-4.078125 -5.765625l0 -7.625l-5.140625 7.625l5.140625 0zm17.179688 0.84375l-10.921875 0l0 -1.375l10.921875 0l0 1.375zm10.9140625 4.921875l-6.546875 0l0 -1.375l2.46875 0l0 -10.4375q-0.21875 0.484375 -0.671875 1.03125q-0.453125 0.53125 -1.078125 0.984375q-0.625 0.453125 -1.375 0.765625q-0.734375 0.296875 -1.53125 0.296875l0 -1.65625q0.71875 0 1.53125 -0.4375q0.828125 -0.453125 1.515625 -1.140625q0.6875 -0.703125 1.140625 -1.578125q0.46875 -0.875 0.46875 -1.7500038l1.609375 0l0 13.921879l2.46875 0l0 1.375zm5.5859375 -7.625q0 1.6875 0.40625 3.1875l7.171875 -7.5625q-0.5625 -1.0625 -1.390625 -1.625q-0.828125 -0.5625 -1.9375 -0.5625q-2.0625 0 -3.15625 1.765625q-1.09375 1.75 -1.09375 4.796875zm0.96875 4.484375q1.15625 2.0625 3.28125 2.0625q2.015625 0 3.125 -1.75q1.125 -1.75 1.125 -4.796875q0 -0.84375 -0.109375 -1.59375q-0.109375 -0.765625 -0.296875 -1.453125l-7.125 7.53125zm-2.578125 -4.484375q0 -1.546875 0.328125 -2.96875q0.328125 -1.4375 1.015625 -2.53125q0.703125 -1.109375 1.8125 -1.7656288q1.125 -0.65625 2.703125 -0.65625q1.59375 0 2.703125 0.65625q1.125 0.6562538 1.828125 1.7656288q0.703125 1.09375 1.015625 2.53125q0.3125 1.421875 0.3125 2.96875q0 1.53125 -0.3125 2.96875q-0.3125 1.421875 -1.015625 2.515625q-0.6875 1.078125 -1.8125 1.75q-1.109375 0.65625 -2.71875 0.65625q-1.59375 0 -2.71875 -0.65625q-1.125 -0.671875 -1.828125 -1.75q-0.6875 -1.09375 -1.0 -2.515625q-0.3125 -1.4375 -0.3125 -2.96875zm24.414062 2.703125l-10.921875 0l0 -1.375l10.921875 0l0 1.375zm10.9140625 4.921875l-6.546875 0l0 -1.375l2.46875 0l0 -10.4375q-0.21875 0.484375 -0.671875 1.03125q-0.453125 0.53125 -1.078125 0.984375q-0.625 0.453125 -1.375 0.765625q-0.734375 0.296875 -1.53125 0.296875l0 -1.65625q0.71875 0 1.53125 -0.4375q0.828125 -0.453125 1.515625 -1.140625q0.6875 -0.703125 1.140625 -1.578125q0.46875 -0.875 0.46875 -1.7500038l1.609375 0l0 13.921879l2.46875 0l0 1.375zm15.4140625 -4.296875q0 1.203125 -0.4375 2.0625q-0.4375 0.84375 -1.203125 1.40625q-0.75 0.5625 -1.765625 0.828125q-1.015625 0.265625 -2.171875 0.265625q-1.171875 0 -2.1875 -0.265625q-1.0 -0.265625 -1.75 -0.828125q-0.75 -0.5625 -1.1875 -1.40625q-0.4375 -0.859375 -0.4375 -2.0625q0 -0.625 0.21875 -1.25q0.234375 -0.640625 0.65625 -1.1875q0.4375 -0.546875 1.046875 -0.90625q0.625 -0.359375 1.359375 -0.453125q-0.640625 -0.0625 -1.15625 -0.40625q-0.5 -0.359375 -0.84375 -0.828125q-0.34375 -0.46875 -0.546875 -1.015625q-0.1875 -0.5625 -0.1875 -1.0625q0 -1.03125 0.40625 -1.8125q0.421875 -0.78125 1.109375 -1.296875q0.6875 -0.5156288 1.59375 -0.7656288q0.921875 -0.265625 1.90625 -0.265625q0.984375 0 1.890625 0.265625q0.921875 0.25 1.609375 0.7656288q0.703125 0.515625 1.109375 1.296875q0.40625 0.78125 0.40625 1.8125q0 0.5 -0.1875 1.0625q-0.1875 0.546875 -0.546875 1.015625q-0.34375 0.46875 -0.859375 0.828125q-0.515625 0.34375 -1.171875 0.40625q0.75 0.09375 1.359375 0.453125q0.609375 0.359375 1.046875 0.90625q0.4375 0.546875 0.671875 1.1875q0.25 0.625 0.25 1.25zm-2.15625 -7.109375q0 -1.28125 -0.921875 -2.03125q-0.90625 -0.75 -2.5 -0.75q-1.578125 0 -2.5 0.75q-0.90625 0.75 -0.90625 2.03125q0 1.203125 0.859375 1.921875q0.875 0.71875 2.546875 0.71875q1.6875 0 2.546875 -0.71875q0.875 -0.71875 0.875 -1.921875zm0.546875 7.109375q0 -0.84375 -0.328125 -1.421875q-0.3125 -0.59375 -0.875 -0.96875q-0.5625 -0.375 -1.265625 -0.53125q-0.703125 -0.171875 -1.5 -0.171875q-0.796875 0 -1.5 0.171875q-0.703125 0.15625 -1.265625 0.53125q-0.546875 0.375 -0.875 0.96875q-0.3125 0.578125 -0.3125 1.421875q0 0.8125 0.3125 1.421875q0.328125 0.59375 0.875 1.0q0.5625 0.390625 1.265625 0.578125q0.703125 0.1875 1.5 0.1875q0.796875 0 1.5 -0.1875q0.703125 -0.1875 1.265625 -0.578125q0.5625 -0.40625 0.875 -1.0q0.328125 -0.609375 0.328125 -1.421875zm14.2734375 -10.968754l-8.984375 18.078129l-1.140625 -0.609375l8.96875 -18.078129l1.15625 0.609375zm11.2265625 15.265629l-6.546875 0l0 -1.375l2.46875 0l0 -10.4375q-0.21875 0.484375 -0.671875 1.03125q-0.453125 0.53125 -1.078125 0.984375q-0.625 0.453125 -1.375 0.765625q-0.734375 0.296875 -1.53125 0.296875l0 -1.65625q0.71875 0 1.53125 -0.4375q0.828125 -0.453125 1.515625 -1.140625q0.6875 -0.703125 1.140625 -1.578125q0.46875 -0.875 0.46875 -1.7500038l1.609375 0l0 13.921879l2.46875 0l0 1.375zm15.2890625 0l-6.546875 0l0 -1.375l2.46875 0l0 -3.0l-6.84375 0l0 -1.390625l6.40625 -9.531254l2.046875 0l0 9.531254l2.46875 0l0 1.390625l-2.46875 0l0 3.0l2.46875 0l0 1.375zm-4.078125 -5.765625l0 -7.625l-5.140625 7.625l5.140625 0zm17.179688 0.84375l-10.921875 0l0 -1.375l10.921875 0l0 1.375zm3.3984375 -2.703125q0 1.6875 0.40625 3.1875l7.171875 -7.5625q-0.5625 -1.0625 -1.390625 -1.625q-0.828125 -0.5625 -1.9375 -0.5625q-2.0625 0 -3.15625 1.765625q-1.09375 1.75 -1.09375 4.796875zm0.96875 4.484375q1.15625 2.0625 3.28125 2.0625q2.015625 0 3.125 -1.75q1.125 -1.75 1.125 -4.796875q0 -0.84375 -0.109375 -1.59375q-0.109375 -0.765625 -0.296875 -1.453125l-7.125 7.53125zm-2.578125 -4.484375q0 -1.546875 0.328125 -2.96875q0.328125 -1.4375 1.015625 -2.53125q0.703125 -1.109375 1.8125 -1.7656288q1.125 -0.65625 2.703125 -0.65625q1.59375 0 2.703125 0.65625q1.125 0.6562538 1.828125 1.7656288q0.703125 1.09375 1.015625 2.53125q0.3125 1.421875 0.3125 2.96875q0 1.53125 -0.3125 2.96875q-0.3125 1.421875 -1.015625 2.515625q-0.6875 1.078125 -1.8125 1.75q-1.109375 0.65625 -2.71875 0.65625q-1.59375 0 -2.71875 -0.65625q-1.125 -0.671875 -1.828125 -1.75q-0.6875 -1.09375 -1.0 -2.515625q-0.3125 -1.4375 -0.3125 -2.96875zm22.226562 7.625l-6.546875 0l0 -1.375l2.46875 0l0 -10.4375q-0.21875 0.484375 -0.671875 1.03125q-0.453125 0.53125 -1.078125 0.984375q-0.625 0.453125 -1.375 0.765625q-0.734375 0.296875 -1.53125 0.296875l0 -1.65625q0.71875 0 1.53125 -0.4375q0.828125 -0.453125 1.515625 -1.140625q0.6875 -0.703125 1.140625 -1.578125q0.46875 -0.875 0.46875 -1.7500038l1.609375 0l0 13.921879l2.46875 0l0 1.375zm15.2890625 -4.921875l-10.921875 0l0 -1.375l10.921875 0l0 1.375zm3.3984375 -2.703125q0 1.6875 0.40625 3.1875l7.171875 -7.5625q-0.5625 -1.0625 -1.390625 -1.625q-0.828125 -0.5625 -1.9375 -0.5625q-2.0625 0 -3.15625 1.765625q-1.09375 1.75 -1.09375 4.796875zm0.96875 4.484375q1.15625 2.0625 3.28125 2.0625q2.015625 0 3.125 -1.75q1.125 -1.75 1.125 -4.796875q0 -0.84375 -0.109375 -1.59375q-0.109375 -0.765625 -0.296875 -1.453125l-7.125 7.53125zm-2.578125 -4.484375q0 -1.546875 0.328125 -2.96875q0.328125 -1.4375 1.015625 -2.53125q0.703125 -1.109375 1.8125 -1.7656288q1.125 -0.65625 2.703125 -0.65625q1.59375 0 2.703125 0.65625q1.125 0.6562538 1.828125 1.7656288q0.703125 1.09375 1.015625 2.53125q0.3125 1.421875 0.3125 2.96875q0 1.53125 -0.3125 2.96875q-0.3125 1.421875 -1.015625 2.515625q-0.6875 1.078125 -1.8125 1.75q-1.109375 0.65625 -2.71875 0.65625q-1.59375 0 -2.71875 -0.65625q-1.125 -0.671875 -1.828125 -1.75q-0.6875 -1.09375 -1.0 -2.515625q-0.3125 -1.4375 -0.3125 -2.96875zm24.414062 7.625l-6.546875 0l0 -1.375l2.46875 0l0 -3.0l-6.84375 0l0 -1.390625l6.40625 -9.531254l2.046875 0l0 9.531254l2.46875 0l0 1.390625l-2.46875 0l0 3.0l2.46875 0l0 1.375zm-4.078125 -5.765625l0 -7.625l-5.140625 7.625l5.140625 0zm17.179688 0.84375l-10.921875 0l0 -1.375l10.921875 0l0 1.375zm13.1015625 -4.625l-4.65625 0l0 8.171875l2.46875 0l0 1.375l-6.546875 0l0 -1.375l2.46875 0l0 -8.171875l-2.46875 0l0 -1.375l2.46875 0q0 -2.25 1.15625 -3.4375q1.171875 -1.1875038 3.53125 -1.1875038q0.546875 0 0.921875 0.03125q0.390625 0.03125 0.65625 0.078125l0 1.3750038q-0.34375 -0.046875 -0.71875 -0.078125q-0.359375 -0.046875 -0.859375 -0.046875q-1.53125 0 -2.3125 0.78125q-0.765625 0.78125 -0.765625 2.484375l4.65625 0l0 1.375zm12.5234375 9.421875q0 1.140625 -0.390625 2.015625q-0.375 0.875 -1.078125 1.484375q-0.6875 0.609375 -1.640625 0.921875q-0.9375 0.328125 -2.09375 0.328125q-1.640625 0 -2.78125 -0.609375q-1.140625 -0.609375 -1.96875 -1.75l1.125 -0.875q0.5 0.765625 1.453125 1.28125q0.953125 0.515625 2.171875 0.515625q1.65625 0 2.625 -0.84375q0.96875 -0.828125 0.96875 -2.421875l0 -1.171875q-1.4375 1.28125 -3.265625 1.28125q-2.5625 0 -4.03125 -1.46875q-1.46875 -1.46875 -1.46875 -4.015625q0 -1.234375 0.375 -2.28125q0.390625 -1.0625 1.09375 -1.828125q0.71875 -0.765625 1.734375 -1.1875q1.03125 -0.4375 2.296875 -0.4375q0.890625 0 1.734375 0.3125q0.84375 0.3125 1.53125 0.9375l0 -0.984375l1.609375 0l0 10.796875zm-1.609375 -8.25q-0.6875 -0.765625 -1.515625 -1.109375q-0.828125 -0.34375 -1.75 -0.34375q-0.953125 0 -1.6875 0.34375q-0.734375 0.34375 -1.21875 0.9375q-0.46875 0.578125 -0.734375 1.390625q-0.25 0.796875 -0.25 1.703125q0 1.875 0.96875 3.0q0.984375 1.109375 2.921875 1.109375q0.921875 0 1.75 -0.34375q0.828125 -0.359375 1.515625 -1.125l0 -5.5625zm15.1484375 4.15625q0 1.0 -0.40625 1.828125q-0.40625 0.828125 -1.09375 1.421875q-0.6875 0.578125 -1.59375 0.90625q-0.890625 0.328125 -1.875 0.328125q-1.109375 0 -2.0625 -0.296875q-0.953125 -0.3125 -1.6875 -0.890625q-0.734375 -0.59375 -1.203125 -1.484375q-0.453125 -0.890625 -0.546875 -2.03125l1.5625 -0.21875q0.140625 1.765625 1.234375 2.65625q1.09375 0.890625 2.703125 0.890625q0.6875 0 1.296875 -0.21875q0.609375 -0.234375 1.0625 -0.65625q0.46875 -0.421875 0.734375 -0.984375q0.265625 -0.5625 0.265625 -1.25q0 -0.9375 -0.3125 -1.53125q-0.296875 -0.59375 -0.859375 -0.921875q-0.5625 -0.34375 -1.390625 -0.453125q-0.8125 -0.125 -1.90625 -0.125l0 -1.359375q0.796875 0 1.53125 -0.140625q0.75 -0.140625 1.328125 -0.4375q0.59375 -0.3125 0.953125 -0.828125q0.375 -0.515625 0.375 -1.3125q0 -1.296875 -0.859375 -2.078125q-0.859375 -0.78125 -2.21875 -0.78125q-1.703125 0 -2.734375 0.90625q-1.03125 0.890625 -1.03125 2.8125l-1.515625 0q0 -1.1875 0.375 -2.140625q0.390625 -0.953125 1.078125 -1.59375q0.703125 -0.6562538 1.671875 -1.0000038q0.96875 -0.34375 2.15625 -0.34375q0.984375 0 1.828125 0.28125q0.859375 0.28125 1.5 0.8281288q0.640625 0.53125 0.984375 1.3125q0.359375 0.78125 0.359375 1.796875q0 1.296875 -0.78125 2.15625q-0.765625 0.859375 -2.21875 1.078125q0.828125 0.125 1.4375 0.46875q0.609375 0.34375 1.015625 0.875q0.40625 0.53125 0.625 1.1875q0.21875 0.640625 0.21875 1.34375zm13.2421875 4.21875l-6.546875 0l0 -1.375l2.46875 0l0 -3.0l-6.84375 0l0 -1.390625l6.40625 -9.531254l2.046875 0l0 9.531254l2.46875 0l0 1.390625l-2.46875 0l0 3.0l2.46875 0l0 1.375zm-4.078125 -5.765625l0 -7.625l-5.140625 7.625l5.140625 0zm6.2265625 2.8125q0 -1.03125 0.515625 -1.71875q0.53125 -0.703125 1.359375 -1.109375q0.84375 -0.40625 1.921875 -0.578125q1.09375 -0.1875 2.21875 -0.1875q0.421875 0 0.765625 0.015625q0.359375 0 0.65625 0.03125q0.3125 0.015625 0.625 0.0625q0.328125 0.03125 0.703125 0.078125l0 -0.796875q0 -0.796875 -0.34375 -1.3125q-0.34375 -0.515625 -0.859375 -0.8125q-0.5 -0.296875 -1.046875 -0.421875q-0.546875 -0.125 -0.9375 -0.125q-1.21875 0 -2.25 0.328125q-1.03125 0.328125 -1.921875 0.890625l-0.734375 -1.21875q0.984375 -0.59375 2.203125 -0.96875q1.234375 -0.390625 2.703125 -0.390625q0.890625 0 1.75 0.234375q0.859375 0.234375 1.546875 0.703125q0.6875 0.46875 1.09375 1.25q0.40625 0.765625 0.40625 1.84375l0 7.15625l-1.609375 0l0 -1.828125q-0.421875 0.53125 -0.953125 0.9375q-0.53125 0.390625 -1.125 0.640625q-0.578125 0.25 -1.171875 0.375q-0.578125 0.140625 -1.109375 0.140625q-2.171875 0 -3.296875 -0.828125q-1.109375 -0.828125 -1.109375 -2.390625zm4.40625 1.84375q1.0 0 1.796875 -0.296875q0.8125 -0.296875 1.375 -0.734375q0.5625 -0.453125 0.875 -0.953125q0.3125 -0.5 0.3125 -0.921875l0 -1.03125q-0.78125 -0.109375 -1.515625 -0.125q-0.71875 -0.015625 -1.234375 -0.015625q-0.875 0 -1.6875 0.125q-0.796875 0.109375 -1.390625 0.375q-0.59375 0.265625 -0.96875 0.6875q-0.359375 0.421875 -0.359375 1.046875q0 0.6875 0.671875 1.265625q0.6875 0.578125 2.125 0.578125zm19.351562 -1.921875q0 0.96875 -0.484375 1.609375q-0.46875 0.625 -1.234375 1.0q-0.75 0.375 -1.6875 0.53125q-0.921875 0.15625 -1.8125 0.15625q-1.484375 0 -2.96875 -0.421875q-1.46875 -0.4375 -2.5625 -1.140625l0.71875 -1.390625q1.21875 0.765625 2.390625 1.171875q1.171875 0.40625 2.421875 0.40625q3.625 0 3.625 -1.875q0 -0.453125 -0.3125 -0.734375q-0.296875 -0.296875 -0.796875 -0.46875q-0.5 -0.1875 -1.15625 -0.28125q-0.640625 -0.109375 -1.359375 -0.203125q-0.921875 -0.140625 -1.828125 -0.3125q-0.890625 -0.171875 -1.640625 -0.515625q-0.734375 -0.359375 -1.1875 -0.9375q-0.453125 -0.59375 -0.453125 -1.5625q0 -0.8125 0.40625 -1.40625q0.421875 -0.609375 1.109375 -1.0q0.703125 -0.40625 1.640625 -0.59375q0.9375 -0.1875 1.953125 -0.1875q1.4375 0 2.578125 0.34375q1.140625 0.328125 2.046875 0.953125l-0.640625 1.25q-0.9375 -0.65625 -1.90625 -0.921875q-0.953125 -0.265625 -2.078125 -0.265625q-0.5 0 -1.125 0.09375q-0.609375 0.09375 -1.140625 0.3125q-0.53125 0.203125 -0.890625 0.5625q-0.34375 0.34375 -0.34375 0.859375q0 0.46875 0.296875 0.75q0.296875 0.265625 0.796875 0.453125q0.5 0.171875 1.15625 0.28125q0.65625 0.109375 1.359375 0.203125q0.890625 0.125 1.796875 0.296875q0.921875 0.171875 1.65625 0.515625q0.75 0.34375 1.203125 0.9375q0.453125 0.578125 0.453125 1.53125zm12.9921875 0.9375q-0.6875 1.078125 -1.890625 1.71875q-1.203125 0.640625 -2.859375 0.640625q-1.28125 0 -2.34375 -0.421875q-1.0625 -0.421875 -1.828125 -1.171875q-0.75 -0.765625 -1.171875 -1.796875q-0.421875 -1.046875 -0.421875 -2.328125q0 -1.234375 0.390625 -2.296875q0.390625 -1.0625 1.09375 -1.8125q0.71875 -0.765625 1.75 -1.1875q1.046875 -0.4375 2.3125 -0.4375q0.5 0 1.03125 0.125q0.53125 0.109375 1.0 0.359375q0.46875 0.234375 0.84375 0.578125q0.375 0.328125 0.5625 0.78125l0 -1.578125l1.4375 0l0 4.375l-1.4375 0q0 -0.734375 -0.265625 -1.328125q-0.265625 -0.59375 -0.734375 -1.03125q-0.453125 -0.4375 -1.09375 -0.671875q-0.625 -0.25 -1.34375 -0.25q-0.984375 0 -1.71875 0.34375q-0.734375 0.34375 -1.234375 0.9375q-0.484375 0.578125 -0.734375 1.375q-0.25 0.78125 -0.25 1.71875q0 0.9375 0.28125 1.734375q0.296875 0.78125 0.828125 1.359375q0.546875 0.578125 1.3125 0.921875q0.78125 0.328125 1.734375 0.328125q1.21875 0 2.171875 -0.46875q0.953125 -0.484375 1.453125 -1.28125l1.125 0.765625zm13.5078125 2.09375l-6.546875 0l0 -1.375l2.46875 0l0 -3.0l-6.84375 0l0 -1.390625l6.40625 -9.531254l2.046875 0l0 9.531254l2.46875 0l0 1.390625l-2.46875 0l0 3.0l2.46875 0l0 1.375zm-4.078125 -5.765625l0 -7.625l-5.140625 7.625l5.140625 0zm16.867188 -9.500004l-8.984375 18.078129l-1.140625 -0.609375l8.96875 -18.078129l1.15625 0.609375zm13.5546875 15.265629l-2.03125 0l-4.46875 -6.546875l-2.375 0l0 6.546875l-1.609375 0l0 -15.296879l5.03125 0q2.53125 0 3.90625 1.0937538q1.390625 1.09375 1.390625 3.28125q0 0.953125 -0.34375 1.734375q-0.34375 0.765625 -0.9375 1.3125q-0.578125 0.53125 -1.390625 0.859375q-0.8125 0.328125 -1.78125 0.390625l4.609375 6.625zm-1.828125 -10.921875q0 -1.5625 -0.96875 -2.28125q-0.96875 -0.71875 -2.65625 -0.71875l-3.421875 0l0 6.0l3.421875 0q1.6875 0 2.65625 -0.703125q0.96875 -0.71875 0.96875 -2.296875zm5.4765625 6.015625q0.171875 1.734375 1.265625 2.765625q1.09375 1.03125 2.828125 1.03125q1.234375 0 2.1875 -0.5q0.96875 -0.5 1.453125 -1.25l1.125 0.765625q-0.828125 1.15625 -1.96875 1.765625q-1.125 0.59375 -2.796875 0.59375q-1.265625 0 -2.328125 -0.421875q-1.046875 -0.421875 -1.8125 -1.171875q-0.765625 -0.765625 -1.1875 -1.796875q-0.421875 -1.046875 -0.421875 -2.328125q0 -1.234375 0.375 -2.28125q0.390625 -1.0625 1.109375 -1.828125q0.71875 -0.765625 1.75 -1.1875q1.03125 -0.4375 2.3125 -0.4375q1.390625 0 2.4375 0.46875q1.046875 0.46875 1.734375 1.296875q0.703125 0.828125 1.03125 1.984375q0.34375 1.140625 0.34375 2.53125l-9.4375 0zm7.734375 -1.359375q-0.265625 -1.796875 -1.296875 -2.671875q-1.03125 -0.890625 -2.546875 -0.890625q-0.78125 0 -1.4375 0.265625q-0.65625 0.25 -1.15625 0.71875q-0.5 0.46875 -0.84375 1.125q-0.34375 0.65625 -0.4375 1.453125l7.71875 0zm3.7265625 3.3125q0 -1.03125 0.515625 -1.71875q0.53125 -0.703125 1.359375 -1.109375q0.84375 -0.40625 1.921875 -0.578125q1.09375 -0.1875 2.21875 -0.1875q0.421875 0 0.765625 0.015625q0.359375 0 0.65625 0.03125q0.3125 0.015625 0.625 0.0625q0.328125 0.03125 0.703125 0.078125l0 -0.796875q0 -0.796875 -0.34375 -1.3125q-0.34375 -0.515625 -0.859375 -0.8125q-0.5 -0.296875 -1.046875 -0.421875q-0.546875 -0.125 -0.9375 -0.125q-1.21875 0 -2.25 0.328125q-1.03125 0.328125 -1.921875 0.890625l-0.734375 -1.21875q0.984375 -0.59375 2.203125 -0.96875q1.234375 -0.390625 2.703125 -0.390625q0.890625 0 1.75 0.234375q0.859375 0.234375 1.546875 0.703125q0.6875 0.46875 1.09375 1.25q0.40625 0.765625 0.40625 1.84375l0 7.15625l-1.609375 0l0 -1.828125q-0.421875 0.53125 -0.953125 0.9375q-0.53125 0.390625 -1.125 0.640625q-0.578125 0.25 -1.171875 0.375q-0.578125 0.140625 -1.109375 0.140625q-2.171875 0 -3.296875 -0.828125q-1.109375 -0.828125 -1.109375 -2.390625zm4.40625 1.84375q1.0 0 1.796875 -0.296875q0.8125 -0.296875 1.375 -0.734375q0.5625 -0.453125 0.875 -0.953125q0.3125 -0.5 0.3125 -0.921875l0 -1.03125q-0.78125 -0.109375 -1.515625 -0.125q-0.71875 -0.015625 -1.234375 -0.015625q-0.875 0 -1.6875 0.125q-0.796875 0.109375 -1.390625 0.375q-0.59375 0.265625 -0.96875 0.6875q-0.359375 0.421875 -0.359375 1.046875q0 0.6875 0.671875 1.265625q0.6875 0.578125 2.125 0.578125zm19.070312 1.109375l-1.609375 0l0 -1.015625q-0.6875 0.625 -1.515625 0.953125q-0.828125 0.328125 -1.703125 0.328125q-1.296875 0 -2.328125 -0.421875q-1.03125 -0.421875 -1.75 -1.171875q-0.703125 -0.765625 -1.09375 -1.8125q-0.375 -1.0625 -0.375 -2.3125q0 -1.234375 0.375 -2.296875q0.390625 -1.0625 1.09375 -1.8125q0.71875 -0.765625 1.75 -1.1875q1.03125 -0.4375 2.328125 -0.4375q0.875 0 1.703125 0.3125q0.828125 0.3125 1.515625 0.9375l0 -3.984375l-2.1875 0l0 -1.3750038l3.796875 0l0 15.296879zm-1.609375 -8.375q-0.6875 -0.765625 -1.515625 -1.109375q-0.8125 -0.34375 -1.71875 -0.34375q-0.96875 0 -1.703125 0.34375q-0.71875 0.34375 -1.21875 0.9375q-0.484375 0.578125 -0.75 1.375q-0.25 0.78125 -0.25 1.71875q0 0.9375 0.25 1.734375q0.265625 0.78125 0.75 1.375q0.5 0.578125 1.21875 0.921875q0.734375 0.34375 1.703125 0.34375q1.84375 0 3.234375 -1.46875l0 -5.828125zm15.2890625 8.375l-1.609375 0l0 -7.859375q0 -0.9375 -0.328125 -1.453125q-0.328125 -0.515625 -0.9375 -0.515625q-0.921875 0 -1.359375 0.96875q-0.421875 0.953125 -0.421875 2.6875l0 6.171875l-1.609375 0l0 -7.859375q0 -0.9375 -0.34375 -1.453125q-0.328125 -0.515625 -0.953125 -0.515625q-0.5625 0 -0.90625 0.34375q-0.34375 0.34375 -0.546875 0.875q-0.1875 0.515625 -0.25 1.171875q-0.046875 0.640625 -0.046875 1.265625l0 6.171875l-1.609375 0l0 -10.921875l1.609375 0l0 1.578125q0.5 -1.84375 2.1875 -1.84375q1.609375 0 2.1875 1.609375q0.796875 -1.609375 2.25 -1.609375q1.390625 0 2.03125 0.828125q0.65625 0.828125 0.65625 2.5l0 7.859375zm3.7890625 -4.90625q0.171875 1.734375 1.265625 2.765625q1.09375 1.03125 2.828125 1.03125q1.234375 0 2.1875 -0.5q0.96875 -0.5 1.453125 -1.25l1.125 0.765625q-0.828125 1.15625 -1.96875 1.765625q-1.125 0.59375 -2.796875 0.59375q-1.265625 0 -2.328125 -0.421875q-1.046875 -0.421875 -1.8125 -1.171875q-0.765625 -0.765625 -1.1875 -1.796875q-0.421875 -1.046875 -0.421875 -2.328125q0 -1.234375 0.375 -2.28125q0.390625 -1.0625 1.109375 -1.828125q0.71875 -0.765625 1.75 -1.1875q1.03125 -0.4375 2.3125 -0.4375q1.390625 0 2.4375 0.46875q1.046875 0.46875 1.734375 1.296875q0.703125 0.828125 1.03125 1.984375q0.34375 1.140625 0.34375 2.53125l-9.4375 0zm7.734375 -1.359375q-0.265625 -1.796875 -1.296875 -2.671875q-1.03125 -0.890625 -2.546875 -0.890625q-0.78125 0 -1.4375 0.265625q-0.65625 0.25 -1.15625 0.71875q-0.5 0.46875 -0.84375 1.125q-0.34375 0.65625 -0.4375 1.453125l7.71875 0zm10.3046875 6.265625l-2.171875 0l0 -2.1875l2.171875 0l0 2.1875zm17.476562 0l-1.609375 0l0 -7.859375q0 -0.9375 -0.328125 -1.453125q-0.328125 -0.515625 -0.9375 -0.515625q-0.921875 0 -1.359375 0.96875q-0.421875 0.953125 -0.421875 2.6875l0 6.171875l-1.609375 0l0 -7.859375q0 -0.9375 -0.34375 -1.453125q-0.328125 -0.515625 -0.953125 -0.515625q-0.5625 0 -0.90625 0.34375q-0.34375 0.34375 -0.546875 0.875q-0.1875 0.515625 -0.25 1.171875q-0.046875 0.640625 -0.046875 1.265625l0 6.171875l-1.609375 0l0 -10.921875l1.609375 0l0 1.578125q0.5 -1.84375 2.1875 -1.84375q1.609375 0 2.1875 1.609375q0.796875 -1.609375 2.25 -1.609375q1.390625 0 2.03125 0.828125q0.65625 0.828125 0.65625 2.5l0 7.859375zm12.5234375 0l-1.609375 0l0 -1.015625q-0.6875 0.625 -1.515625 0.953125q-0.828125 0.328125 -1.703125 0.328125q-1.296875 0 -2.328125 -0.421875q-1.03125 -0.421875 -1.75 -1.171875q-0.703125 -0.765625 -1.09375 -1.8125q-0.375 -1.0625 -0.375 -2.3125q0 -1.234375 0.375 -2.296875q0.390625 -1.0625 1.09375 -1.8125q0.71875 -0.765625 1.75 -1.1875q1.03125 -0.4375 2.328125 -0.4375q0.875 0 1.703125 0.3125q0.828125 0.3125 1.515625 0.9375l0 -3.984375l-2.1875 0l0 -1.3750038l3.796875 0l0 15.296879zm-1.609375 -8.375q-0.6875 -0.765625 -1.515625 -1.109375q-0.8125 -0.34375 -1.71875 -0.34375q-0.96875 0 -1.703125 0.34375q-0.71875 0.34375 -1.21875 0.9375q-0.484375 0.578125 -0.75 1.375q-0.25 0.78125 -0.25 1.71875q0 0.9375 0.25 1.734375q0.265625 0.78125 0.75 1.375q0.5 0.578125 1.21875 0.921875q0.734375 0.34375 1.703125 0.34375q1.84375 0 3.234375 -1.46875l0 -5.828125zm6.5546875 -6.921879l3.75 0l0 2.5625038q0 0.796875 -0.25 1.53125q-0.234375 0.71875 -0.703125 1.265625q-0.46875 0.53125 -1.171875 0.859375q-0.6875 0.3125 -1.625 0.3125l0 -1.359375q2.375 0 2.375 -2.609375l0 -0.375l-2.375 0l0 -2.1875038zm19.679688 8.671879q0 1.578125 -0.359375 3.125q-0.34375 1.53125 -1.015625 2.953125q-0.671875 1.421875 -1.640625 2.65625q-0.96875 1.25 -2.21875 2.234375l-0.84375 -1.046875q1.109375 -0.890625 1.984375 -2.03125q0.875 -1.125 1.484375 -2.40625q0.625 -1.28125 0.921875 -2.671875q0.3125 -1.390625 0.3125 -2.8125q0 -1.421875 -0.3125 -2.828125q-0.296875 -1.40625 -0.921875 -2.6875q-0.609375 -1.28125 -1.484375 -2.40625q-0.875 -1.1250038 -1.984375 -2.0156288l0.84375 -1.046875q1.25 0.984375 2.21875 2.234375q0.96875 1.2343788 1.640625 2.6562538q0.671875 1.40625 1.015625 2.96875q0.359375 1.546875 0.359375 3.125z" fill-rule="nonzero"></path><path fill="#cccccc" d="m463.19946 156.77428l80.8819 0l0 78.39371l-80.8819 0z" fill-rule="nonzero"></path><path stroke="#4c4c4c" stroke-width="2.0" stroke-linejoin="round" stroke-linecap="butt" d="m463.19946 156.77428l80.8819 0l0 78.39371l-80.8819 0z" fill-rule="nonzero"></path><path fill="#000000" d="m473.69946 202.89113l0 -13.59375l6.03125 0q1.8125 0 2.75 0.359375q0.953125 0.359375 1.515625 1.296875q0.5625 0.921875 0.5625 2.046875q0 1.453125 -0.9375 2.453125q-0.921875 0.984375 -2.890625 1.25q0.71875 0.34375 1.09375 0.671875q0.78125 0.734375 1.484375 1.8125l2.375 3.703125l-2.265625 0l-1.796875 -2.828125q-0.796875 -1.21875 -1.3125 -1.875q-0.5 -0.65625 -0.90625 -0.90625q-0.40625 -0.265625 -0.8125 -0.359375q-0.3125 -0.078125 -1.015625 -0.078125l-2.078125 0l0 6.046875l-1.796875 0zm1.796875 -7.59375l3.859375 0q1.234375 0 1.921875 -0.25q0.703125 -0.265625 1.0625 -0.828125q0.375 -0.5625 0.375 -1.21875q0 -0.96875 -0.703125 -1.578125q-0.703125 -0.625 -2.21875 -0.625l-4.296875 0l0 4.5zm10.801086 2.671875q0 -2.734375 1.53125 -4.0625q1.265625 -1.09375 3.09375 -1.09375q2.03125 0 3.3125 1.34375q1.296875 1.328125 1.296875 3.671875q0 1.90625 -0.578125 3.0q-0.5625 1.078125 -1.65625 1.6875q-1.078125 0.59375 -2.375 0.59375q-2.0625 0 -3.34375 -1.328125q-1.28125 -1.328125 -1.28125 -3.8125zm1.71875 0q0 1.890625 0.828125 2.828125q0.828125 0.9375 2.078125 0.9375q1.25 0 2.0625 -0.9375q0.828125 -0.953125 0.828125 -2.890625q0 -1.828125 -0.828125 -2.765625q-0.828125 -0.9375 -2.0625 -0.9375q-1.25 0 -2.078125 0.9375q-0.828125 0.9375 -0.828125 2.828125zm15.735077 4.921875l0 -1.453125q-1.140625 1.671875 -3.125 1.671875q-0.859375 0 -1.625 -0.328125q-0.75 -0.34375 -1.125 -0.84375q-0.359375 -0.5 -0.515625 -1.234375q-0.09375 -0.5 -0.09375 -1.5625l0 -6.109375l1.671875 0l0 5.46875q0 1.3125 0.09375 1.765625q0.15625 0.65625 0.671875 1.03125q0.515625 0.375 1.265625 0.375q0.75 0 1.40625 -0.375q0.65625 -0.390625 0.921875 -1.046875q0.28125 -0.671875 0.28125 -1.9375l0 -5.28125l1.671875 0l0 9.859375l-1.5 0zm7.5788574 -1.5l0.234375 1.484375q-0.703125 0.140625 -1.265625 0.140625q-0.90625 0 -1.40625 -0.28125q-0.5 -0.296875 -0.703125 -0.75q-0.203125 -0.46875 -0.203125 -1.984375l0 -5.65625l-1.234375 0l0 -1.3125l1.234375 0l0 -2.4375l1.65625 -1.0l0 3.4375l1.6875 0l0 1.3125l-1.6875 0l0 5.75q0 0.71875 0.078125 0.921875q0.09375 0.203125 0.296875 0.328125q0.203125 0.125 0.578125 0.125q0.265625 0 0.734375 -0.078125zm8.277069 -1.671875l1.71875 0.21875q-0.40625 1.5 -1.515625 2.34375q-1.09375 0.828125 -2.8125 0.828125q-2.15625 0 -3.421875 -1.328125q-1.265625 -1.328125 -1.265625 -3.734375q0 -2.484375 1.265625 -3.859375q1.28125 -1.375 3.328125 -1.375q1.984375 0 3.234375 1.34375q1.25 1.34375 1.25 3.796875q0 0.140625 -0.015625 0.4375l-7.34375 0q0.09375 1.625 0.921875 2.484375q0.828125 0.859375 2.0625 0.859375q0.90625 0 1.546875 -0.46875q0.65625 -0.484375 1.046875 -1.546875zm-5.484375 -2.703125l5.5 0q-0.109375 -1.234375 -0.625 -1.859375q-0.796875 -0.96875 -2.078125 -0.96875q-1.140625 0 -1.9375 0.78125q-0.78125 0.765625 -0.859375 2.046875zm9.094421 5.875l0 -9.859375l1.5 0l0 1.5q0.578125 -1.046875 1.0625 -1.375q0.484375 -0.34375 1.078125 -0.34375q0.84375 0 1.71875 0.546875l-0.578125 1.546875q-0.609375 -0.359375 -1.234375 -0.359375q-0.546875 0 -0.984375 0.328125q-0.421875 0.328125 -0.609375 0.90625q-0.28125 0.890625 -0.28125 1.953125l0 5.15625l-1.671875 0z" fill-rule="nonzero"></path><path fill="#000000" fill-opacity="0.0" d="m503.0105 94.56956l0.62991333 62.20472" fill-rule="nonzero"></path><path stroke="#4c4c4c" stroke-width="2.0" stroke-linejoin="round" stroke-linecap="butt" d="m503.0105 94.56956l0.50842285 50.20533" fill-rule="evenodd"></path><path fill="#4c4c4c" stroke="#4c4c4c" stroke-width="2.0" stroke-linecap="butt" d="m500.2156 144.80835l3.3952026 9.042267l3.2113953 -9.109177z" fill-rule="evenodd"></path><path fill="#000000" fill-opacity="0.0" d="m503.6404 235.16798l-263.77954 126.89763" fill-rule="nonzero"></path><path stroke="#4c4c4c" stroke-width="2.0" stroke-linejoin="round" stroke-linecap="butt" d="m503.6404 235.16798l-252.96579 121.69542" fill-rule="evenodd"></path><path fill="#4c4c4c" stroke="#4c4c4c" stroke-width="2.0" stroke-linecap="butt" d="m249.24252 353.8865l-6.7468567 6.9115906l9.611069 -0.9577942z" fill-rule="evenodd"></path><path fill="#000000" fill-opacity="0.0" d="m503.6404 235.16798l-95.18109 126.89763" fill-rule="nonzero"></path><path stroke="#4c4c4c" stroke-width="2.0" stroke-linejoin="round" stroke-linecap="butt" d="m503.6404 235.16798l-87.98071 117.29793" fill-rule="evenodd"></path><path fill="#4c4c4c" stroke="#4c4c4c" stroke-width="2.0" stroke-linecap="butt" d="m413.017 350.48373l-2.8033142 9.24292l8.088715 -5.2785645z" fill-rule="evenodd"></path><path fill="#000000" fill-opacity="0.0" d="m503.6404 235.16798l73.858246 126.89763" fill-rule="nonzero"></path><path stroke="#cc0000" stroke-width="2.0" stroke-linejoin="round" stroke-linecap="butt" d="m503.6404 235.16798l67.82193 116.52641" fill-rule="evenodd"></path><path fill="#cc0000" stroke="#cc0000" stroke-width="2.0" stroke-linecap="butt" d="m568.60724 353.35614l7.4207153 6.1825256l-1.7105713 -9.506012z" fill-rule="evenodd"></path><path fill="#cccccc" d="m168.30971 362.0735l143.08662 0l0 62.204742l-143.08662 0z" fill-rule="nonzero"></path><path stroke="#4c4c4c" stroke-width="2.0" stroke-linejoin="round" stroke-linecap="butt" d="m168.30971 362.0735l143.08662 0l0 62.204742l-143.08662 0z" fill-rule="nonzero"></path><path fill="#000000" d="m188.48158 395.33023l1.796875 0.453125q-0.5625 2.21875 -2.03125 3.390625q-1.46875 1.15625 -3.59375 1.15625q-2.203125 0 -3.578125 -0.890625q-1.375 -0.90625 -2.09375 -2.59375q-0.71875 -1.703125 -0.71875 -3.65625q0 -2.125 0.796875 -3.703125q0.8125 -1.578125 2.3125 -2.390625q1.5 -0.828125 3.296875 -0.828125q2.046875 0 3.4375 1.046875q1.390625 1.03125 1.9375 2.90625l-1.765625 0.421875q-0.46875 -1.484375 -1.375 -2.15625q-0.90625 -0.6875 -2.265625 -0.6875q-1.5625 0 -2.625 0.75q-1.046875 0.75 -1.484375 2.03125q-0.421875 1.265625 -0.421875 2.609375q0 1.734375 0.5 3.03125q0.515625 1.28125 1.578125 1.921875q1.078125 0.640625 2.3125 0.640625q1.515625 0 2.5625 -0.859375q1.046875 -0.875 1.421875 -2.59375zm10.004196 4.765625l0 -1.453125q-1.140625 1.671875 -3.125 1.671875q-0.859375 0 -1.625 -0.328125q-0.75 -0.34375 -1.125 -0.84375q-0.359375 -0.5 -0.515625 -1.234375q-0.09375 -0.5 -0.09375 -1.5625l0 -6.109375l1.671875 0l0 5.46875q0 1.3125 0.09375 1.765625q0.15625 0.65625 0.671875 1.03125q0.515625 0.375 1.265625 0.375q0.75 0 1.40625 -0.375q0.65625 -0.390625 0.921875 -1.046875q0.28125 -0.671875 0.28125 -1.9375l0 -5.28125l1.671875 0l0 9.859375l-1.5 0zm3.9069672 0l0 -9.859375l1.5 0l0 1.5q0.578125 -1.046875 1.0625 -1.375q0.484375 -0.34375 1.078125 -0.34375q0.84375 0 1.71875 0.546875l-0.578125 1.546875q-0.609375 -0.359375 -1.234375 -0.359375q-0.546875 0 -0.984375 0.328125q-0.421875 0.328125 -0.609375 0.90625q-0.28125 0.890625 -0.28125 1.953125l0 5.15625l-1.671875 0zm6.212677 0l0 -9.859375l1.5 0l0 1.5q0.578125 -1.046875 1.0625 -1.375q0.484375 -0.34375 1.078125 -0.34375q0.84375 0 1.71875 0.546875l-0.578125 1.546875q-0.609375 -0.359375 -1.234375 -0.359375q-0.546875 0 -0.984375 0.328125q-0.421875 0.328125 -0.609375 0.90625q-0.28125 0.890625 -0.28125 1.953125l0 5.15625l-1.671875 0zm12.978302 -3.171875l1.71875 0.21875q-0.40625 1.5 -1.515625 2.34375q-1.09375 0.828125 -2.8125 0.828125q-2.15625 0 -3.421875 -1.328125q-1.265625 -1.328125 -1.265625 -3.734375q0 -2.484375 1.265625 -3.859375q1.28125 -1.375 3.328125 -1.375q1.984375 0 3.234375 1.34375q1.25 1.34375 1.25 3.796875q0 0.140625 -0.015625 0.4375l-7.34375 0q0.09375 1.625 0.921875 2.484375q0.828125 0.859375 2.0625 0.859375q0.90625 0 1.546875 -0.46875q0.65625 -0.484375 1.046875 -1.546875zm-5.484375 -2.703125l5.5 0q-0.109375 -1.234375 -0.625 -1.859375q-0.796875 -0.96875 -2.078125 -0.96875q-1.140625 0 -1.9375 0.78125q-0.78125 0.765625 -0.859375 2.046875zm9.110092 5.875l0 -9.859375l1.5 0l0 1.40625q1.09375 -1.625 3.140625 -1.625q0.890625 0 1.640625 0.328125q0.75 0.3125 1.109375 0.84375q0.375 0.515625 0.53125 1.21875q0.09375 0.46875 0.09375 1.625l0 6.0625l-1.671875 0l0 -6.0q0 -1.015625 -0.203125 -1.515625q-0.1875 -0.515625 -0.6875 -0.8125q-0.5 -0.296875 -1.171875 -0.296875q-1.0625 0 -1.84375 0.671875q-0.765625 0.671875 -0.765625 2.578125l0 5.375l-1.671875 0zm14.031967 -1.5l0.234375 1.484375q-0.703125 0.140625 -1.265625 0.140625q-0.90625 0 -1.40625 -0.28125q-0.5 -0.296875 -0.703125 -0.75q-0.203125 -0.46875 -0.203125 -1.984375l0 -5.65625l-1.234375 0l0 -1.3125l1.234375 0l0 -2.4375l1.65625 -1.0l0 3.4375l1.6875 0l0 1.3125l-1.6875 0l0 5.75q0 0.71875 0.078125 0.921875q0.09375 0.203125 0.296875 0.328125q0.203125 0.125 0.578125 0.125q0.265625 0 0.734375 -0.078125zm5.636429 1.5l-5.28125 -13.59375l1.953125 0l3.53125 9.875q0.4375 1.1875 0.71875 2.21875q0.3125 -1.109375 0.734375 -2.21875l3.671875 -9.875l1.84375 0l-5.328125 13.59375l-1.84375 0zm8.349823 -11.6875l0 -1.90625l1.671875 0l0 1.90625l-1.671875 0zm0 11.6875l0 -9.859375l1.671875 0l0 9.859375l-1.671875 0zm10.879211 -3.171875l1.71875 0.21875q-0.40625 1.5 -1.515625 2.34375q-1.09375 0.828125 -2.8125 0.828125q-2.15625 0 -3.421875 -1.328125q-1.265625 -1.328125 -1.265625 -3.734375q0 -2.484375 1.265625 -3.859375q1.28125 -1.375 3.328125 -1.375q1.984375 0 3.234375 1.34375q1.25 1.34375 1.25 3.796875q0 0.140625 -0.015625 0.4375l-7.34375 0q0.09375 1.625 0.921875 2.484375q0.828125 0.859375 2.0625 0.859375q0.90625 0 1.546875 -0.46875q0.65625 -0.484375 1.046875 -1.546875zm-5.484375 -2.703125l5.5 0q-0.109375 -1.234375 -0.625 -1.859375q-0.796875 -0.96875 -2.078125 -0.96875q-1.140625 0 -1.9375 0.78125q-0.78125 0.765625 -0.859375 2.046875zm10.938202 5.875l-3.015625 -9.859375l1.71875 0l1.5625 5.6875l0.59375 2.125q0.03125 -0.15625 0.5 -2.03125l1.578125 -5.78125l1.71875 0l1.46875 5.71875l0.484375 1.890625l0.578125 -1.90625l1.6875 -5.703125l1.625 0l-3.078125 9.859375l-1.734375 0l-1.578125 -5.90625l-0.375 -1.671875l-2.0 7.578125l-1.734375 0z" fill-rule="nonzero"></path><path fill="#cccccc" d="m348.71652 362.0735l119.46457 0l0 62.204742l-119.46457 0z" fill-rule="nonzero"></path><path stroke="#4c4c4c" stroke-width="2.0" stroke-linejoin="round" stroke-linecap="butt" d="m348.71652 362.0735l119.46457 0l0 62.204742l-119.46457 0z" fill-rule="nonzero"></path><path fill="#000000" d="m359.23215 400.09586l0 -13.59375l1.8125 0l0 5.578125l7.0625 0l0 -5.578125l1.796875 0l0 13.59375l-1.796875 0l0 -6.40625l-7.0625 0l0 6.40625l-1.8125 0zm13.222961 -11.6875l0 -1.90625l1.671875 0l0 1.90625l-1.671875 0zm0 11.6875l0 -9.859375l1.671875 0l0 9.859375l-1.671875 0zm3.457306 -2.9375l1.65625 -0.265625q0.140625 1.0 0.765625 1.53125q0.640625 0.515625 1.78125 0.515625q1.15625 0 1.703125 -0.46875q0.5625 -0.46875 0.5625 -1.09375q0 -0.5625 -0.484375 -0.890625q-0.34375 -0.21875 -1.703125 -0.5625q-1.84375 -0.46875 -2.5625 -0.796875q-0.703125 -0.34375 -1.078125 -0.9375q-0.359375 -0.609375 -0.359375 -1.328125q0 -0.65625 0.296875 -1.21875q0.3125 -0.5625 0.828125 -0.9375q0.390625 -0.28125 1.0625 -0.484375q0.671875 -0.203125 1.4375 -0.203125q1.171875 0 2.046875 0.34375q0.875 0.328125 1.28125 0.90625q0.421875 0.5625 0.578125 1.515625l-1.625 0.21875q-0.109375 -0.75 -0.65625 -1.171875q-0.53125 -0.4375 -1.5 -0.4375q-1.15625 0 -1.640625 0.390625q-0.484375 0.375 -0.484375 0.875q0 0.328125 0.203125 0.59375q0.203125 0.265625 0.640625 0.4375q0.25 0.09375 1.46875 0.4375q1.765625 0.46875 2.46875 0.765625q0.703125 0.296875 1.09375 0.875q0.40625 0.578125 0.40625 1.4375q0 0.828125 -0.484375 1.578125q-0.484375 0.734375 -1.40625 1.140625q-0.921875 0.390625 -2.078125 0.390625q-1.921875 0 -2.9375 -0.796875q-1.0 -0.796875 -1.28125 -2.359375zm13.65625 1.4375l0.234375 1.484375q-0.703125 0.140625 -1.265625 0.140625q-0.90625 0 -1.40625 -0.28125q-0.5 -0.296875 -0.703125 -0.75q-0.203125 -0.46875 -0.203125 -1.984375l0 -5.65625l-1.234375 0l0 -1.3125l1.234375 0l0 -2.4375l1.65625 -1.0l0 3.4375l1.6875 0l0 1.3125l-1.6875 0l0 5.75q0 0.71875 0.078125 0.921875q0.09375 0.203125 0.296875 0.328125q0.203125 0.125 0.578125 0.125q0.265625 0 0.734375 -0.078125zm0.9020691 -3.421875q0 -2.734375 1.53125 -4.0625q1.265625 -1.09375 3.09375 -1.09375q2.03125 0 3.3125 1.34375q1.296875 1.328125 1.296875 3.671875q0 1.90625 -0.578125 3.0q-0.5625 1.078125 -1.65625 1.6875q-1.078125 0.59375 -2.375 0.59375q-2.0625 0 -3.34375 -1.328125q-1.28125 -1.328125 -1.28125 -3.8125zm1.71875 0q0 1.890625 0.828125 2.828125q0.828125 0.9375 2.078125 0.9375q1.25 0 2.0625 -0.9375q0.828125 -0.953125 0.828125 -2.890625q0 -1.828125 -0.828125 -2.765625q-0.828125 -0.9375 -2.0625 -0.9375q-1.25 0 -2.078125 0.9375q-0.828125 0.9375 -0.828125 2.828125zm9.266327 4.921875l0 -9.859375l1.5 0l0 1.5q0.578125 -1.046875 1.0625 -1.375q0.484375 -0.34375 1.078125 -0.34375q0.84375 0 1.71875 0.546875l-0.578125 1.546875q-0.609375 -0.359375 -1.234375 -0.359375q-0.546875 0 -0.984375 0.328125q-0.421875 0.328125 -0.609375 0.90625q-0.28125 0.890625 -0.28125 1.953125l0 5.15625l-1.671875 0zm6.150177 3.796875l-0.171875 -1.5625q0.546875 0.140625 0.953125 0.140625q0.546875 0 0.875 -0.1875q0.34375 -0.1875 0.5625 -0.515625q0.15625 -0.25 0.5 -1.25q0.046875 -0.140625 0.15625 -0.40625l-3.734375 -9.875l1.796875 0l2.046875 5.71875q0.40625 1.078125 0.71875 2.28125q0.28125 -1.15625 0.6875 -2.25l2.09375 -5.75l1.671875 0l-3.75 10.03125q-0.59375 1.625 -0.9375 2.234375q-0.4375 0.828125 -1.015625 1.203125q-0.578125 0.390625 -1.375 0.390625q-0.484375 0 -1.078125 -0.203125zm13.515625 -3.796875l-5.28125 -13.59375l1.953125 0l3.53125 9.875q0.4375 1.1875 0.71875 2.21875q0.3125 -1.109375 0.734375 -2.21875l3.671875 -9.875l1.84375 0l-5.328125 13.59375l-1.84375 0zm8.349823 -11.6875l0 -1.90625l1.671875 0l0 1.90625l-1.671875 0zm0 11.6875l0 -9.859375l1.671875 0l0 9.859375l-1.671875 0zm10.879211 -3.171875l1.71875 0.21875q-0.40625 1.5 -1.515625 2.34375q-1.09375 0.828125 -2.8125 0.828125q-2.15625 0 -3.421875 -1.328125q-1.265625 -1.328125 -1.265625 -3.734375q0 -2.484375 1.265625 -3.859375q1.28125 -1.375 3.328125 -1.375q1.984375 0 3.234375 1.34375q1.25 1.34375 1.25 3.796875q0 0.140625 -0.015625 0.4375l-7.34375 0q0.09375 1.625 0.921875 2.484375q0.828125 0.859375 2.0625 0.859375q0.90625 0 1.546875 -0.46875q0.65625 -0.484375 1.046875 -1.546875zm-5.484375 -2.703125l5.5 0q-0.109375 -1.234375 -0.625 -1.859375q-0.796875 -0.96875 -2.078125 -0.96875q-1.140625 0 -1.9375 0.78125q-0.78125 0.765625 -0.859375 2.046875zm10.938202 5.875l-3.015625 -9.859375l1.71875 0l1.5625 5.6875l0.59375 2.125q0.03125 -0.15625 0.5 -2.03125l1.578125 -5.78125l1.71875 0l1.46875 5.71875l0.484375 1.890625l0.578125 -1.90625l1.6875 -5.703125l1.625 0l-3.078125 9.859375l-1.734375 0l-1.578125 -5.90625l-0.375 -1.671875l-2.0 7.578125l-1.734375 0z" fill-rule="nonzero"></path><path fill="#cccccc" d="m513.8609 362.0735l127.27557 0l0 62.204742l-127.27557 0z" fill-rule="nonzero"></path><path stroke="#cc0000" stroke-width="2.0" stroke-linejoin="round" stroke-linecap="butt" d="m513.8609 362.0735l127.27557 0l0 62.204742l-127.27557 0z" fill-rule="nonzero"></path><path fill="#000000" d="m534.0328 395.33023l1.796875 0.453125q-0.5625 2.21875 -2.03125 3.390625q-1.46875 1.15625 -3.59375 1.15625q-2.203125 0 -3.578125 -0.890625q-1.375 -0.90625 -2.09375 -2.59375q-0.71875 -1.703125 -0.71875 -3.65625q0 -2.125 0.796875 -3.703125q0.8125 -1.578125 2.3125 -2.390625q1.5 -0.828125 3.296875 -0.828125q2.046875 0 3.4375 1.046875q1.390625 1.03125 1.9375 2.90625l-1.765625 0.421875q-0.46875 -1.484375 -1.375 -2.15625q-0.90625 -0.6875 -2.265625 -0.6875q-1.5625 0 -2.625 0.75q-1.046875 0.75 -1.484375 2.03125q-0.421875 1.265625 -0.421875 2.609375q0 1.734375 0.5 3.03125q0.515625 1.28125 1.578125 1.921875q1.078125 0.640625 2.3125 0.640625q1.515625 0 2.5625 -0.859375q1.046875 -0.875 1.421875 -2.59375zm2.9260864 -0.15625q0 -2.734375 1.53125 -4.0625q1.265625 -1.09375 3.09375 -1.09375q2.03125 0 3.3125 1.34375q1.296875 1.328125 1.296875 3.671875q0 1.90625 -0.578125 3.0q-0.5625 1.078125 -1.65625 1.6875q-1.078125 0.59375 -2.375 0.59375q-2.0625 0 -3.34375 -1.328125q-1.28125 -1.328125 -1.28125 -3.8125zm1.71875 0q0 1.890625 0.828125 2.828125q0.828125 0.9375 2.078125 0.9375q1.25 0 2.0625 -0.9375q0.828125 -0.953125 0.828125 -2.890625q0 -1.828125 -0.828125 -2.765625q-0.828125 -0.9375 -2.0625 -0.9375q-1.25 0 -2.078125 0.9375q-0.828125 0.9375 -0.828125 2.828125zm9.281921 4.921875l0 -9.859375l1.5 0l0 1.390625q0.453125 -0.71875 1.21875 -1.15625q0.78125 -0.453125 1.765625 -0.453125q1.09375 0 1.796875 0.453125q0.703125 0.453125 0.984375 1.28125q1.171875 -1.734375 3.046875 -1.734375q1.46875 0 2.25 0.8125q0.796875 0.8125 0.796875 2.5l0 6.765625l-1.671875 0l0 -6.203125q0 -1.0 -0.15625 -1.4375q-0.15625 -0.453125 -0.59375 -0.71875q-0.421875 -0.265625 -1.0 -0.265625q-1.03125 0 -1.71875 0.6875q-0.6875 0.6875 -0.6875 2.21875l0 5.71875l-1.671875 0l0 -6.40625q0 -1.109375 -0.40625 -1.65625q-0.40625 -0.5625 -1.34375 -0.5625q-0.703125 0 -1.3125 0.375q-0.59375 0.359375 -0.859375 1.078125q-0.265625 0.71875 -0.265625 2.0625l0 5.109375l-1.671875 0zm15.5408325 0l0 -9.859375l1.5 0l0 1.390625q0.453125 -0.71875 1.21875 -1.15625q0.78125 -0.453125 1.765625 -0.453125q1.09375 0 1.796875 0.453125q0.703125 0.453125 0.984375 1.28125q1.171875 -1.734375 3.046875 -1.734375q1.46875 0 2.25 0.8125q0.796875 0.8125 0.796875 2.5l0 6.765625l-1.671875 0l0 -6.203125q0 -1.0 -0.15625 -1.4375q-0.15625 -0.453125 -0.59375 -0.71875q-0.421875 -0.265625 -1.0 -0.265625q-1.03125 0 -1.71875 0.6875q-0.6875 0.6875 -0.6875 2.21875l0 5.71875l-1.671875 0l0 -6.40625q0 -1.109375 -0.40625 -1.65625q-0.40625 -0.5625 -1.34375 -0.5625q-0.703125 0 -1.3125 0.375q-0.59375 0.359375 -0.859375 1.078125q-0.265625 0.71875 -0.265625 2.0625l0 5.109375l-1.671875 0zm15.5563965 -11.6875l0 -1.90625l1.671875 0l0 1.90625l-1.671875 0zm0 11.6875l0 -9.859375l1.671875 0l0 9.859375l-1.671875 0zm7.7854614 -1.5l0.234375 1.484375q-0.703125 0.140625 -1.265625 0.140625q-0.90625 0 -1.40625 -0.28125q-0.5 -0.296875 -0.703125 -0.75q-0.203125 -0.46875 -0.203125 -1.984375l0 -5.65625l-1.234375 0l0 -1.3125l1.234375 0l0 -2.4375l1.65625 -1.0l0 3.4375l1.6875 0l0 1.3125l-1.6875 0l0 5.75q0 0.71875 0.078125 0.921875q0.09375 0.203125 0.296875 0.328125q0.203125 0.125 0.578125 0.125q0.265625 0 0.734375 -0.078125zm5.6364136 1.5l-5.28125 -13.59375l1.953125 0l3.53125 9.875q0.4375 1.1875 0.71875 2.21875q0.3125 -1.109375 0.734375 -2.21875l3.671875 -9.875l1.84375 0l-5.328125 13.59375l-1.84375 0zm8.3498535 -11.6875l0 -1.90625l1.671875 0l0 1.90625l-1.671875 0zm0 11.6875l0 -9.859375l1.671875 0l0 9.859375l-1.671875 0zm10.879211 -3.171875l1.71875 0.21875q-0.40625 1.5 -1.515625 2.34375q-1.09375 0.828125 -2.8125 0.828125q-2.15625 0 -3.421875 -1.328125q-1.265625 -1.328125 -1.265625 -3.734375q0 -2.484375 1.265625 -3.859375q1.28125 -1.375 3.328125 -1.375q1.984375 0 3.234375 1.34375q1.25 1.34375 1.25 3.796875q0 0.140625 -0.015625 0.4375l-7.34375 0q0.09375 1.625 0.921875 2.484375q0.828125 0.859375 2.0625 0.859375q0.90625 0 1.546875 -0.46875q0.65625 -0.484375 1.046875 -1.546875zm-5.484375 -2.703125l5.5 0q-0.109375 -1.234375 -0.625 -1.859375q-0.796875 -0.96875 -2.078125 -0.96875q-1.140625 0 -1.9375 0.78125q-0.78125 0.765625 -0.859375 2.046875zm10.938171 5.875l-3.015625 -9.859375l1.71875 0l1.5625 5.6875l0.59375 2.125q0.03125 -0.15625 0.5 -2.03125l1.578125 -5.78125l1.71875 0l1.46875 5.71875l0.484375 1.890625l0.578125 -1.90625l1.6875 -5.703125l1.625 0l-3.078125 9.859375l-1.734375 0l-1.578125 -5.90625l-0.375 -1.671875l-2.0 7.578125l-1.734375 0z" fill-rule="nonzero"></path><path fill="#cccccc" d="m680.4147 362.0735l111.275635 0l0 62.204742l-111.275635 0z" fill-rule="nonzero"></path><path stroke="#4c4c4c" stroke-width="2.0" stroke-linejoin="round" stroke-linecap="butt" d="m680.4147 362.0735l111.275635 0l0 62.204742l-111.275635 0z" fill-rule="nonzero"></path><path fill="#000000" d="m691.1803 400.09586l0 -13.59375l1.8125 0l0 13.59375l-1.8125 0zm4.6677246 0l0 -9.859375l1.5 0l0 1.40625q1.09375 -1.625 3.140625 -1.625q0.890625 0 1.640625 0.328125q0.75 0.3125 1.109375 0.84375q0.375 0.515625 0.53125 1.21875q0.09375 0.46875 0.09375 1.625l0 6.0625l-1.671875 0l0 -6.0q0 -1.015625 -0.203125 -1.515625q-0.1875 -0.515625 -0.6875 -0.8125q-0.5 -0.296875 -1.171875 -0.296875q-1.0625 0 -1.84375 0.671875q-0.765625 0.671875 -0.765625 2.578125l0 5.375l-1.671875 0zm16.766296 0l0 -1.25q-0.9375 1.46875 -2.75 1.46875q-1.171875 0 -2.171875 -0.640625q-0.984375 -0.65625 -1.53125 -1.8125q-0.53125 -1.171875 -0.53125 -2.6875q0 -1.46875 0.484375 -2.671875q0.5 -1.203125 1.46875 -1.84375q0.984375 -0.640625 2.203125 -0.640625q0.890625 0 1.578125 0.375q0.703125 0.375 1.140625 0.984375l0 -4.875l1.65625 0l0 13.59375l-1.546875 0zm-5.28125 -4.921875q0 1.890625 0.796875 2.828125q0.8125 0.9375 1.890625 0.9375q1.09375 0 1.859375 -0.890625q0.765625 -0.890625 0.765625 -2.734375q0 -2.015625 -0.78125 -2.953125q-0.78125 -0.953125 -1.921875 -0.953125q-1.109375 0 -1.859375 0.90625q-0.75 0.90625 -0.75 2.859375zm16.016357 1.75l1.71875 0.21875q-0.40625 1.5 -1.515625 2.34375q-1.09375 0.828125 -2.8125 0.828125q-2.15625 0 -3.421875 -1.328125q-1.265625 -1.328125 -1.265625 -3.734375q0 -2.484375 1.265625 -3.859375q1.28125 -1.375 3.328125 -1.375q1.984375 0 3.234375 1.34375q1.25 1.34375 1.25 3.796875q0 0.140625 -0.015625 0.4375l-7.34375 0q0.09375 1.625 0.921875 2.484375q0.828125 0.859375 2.0625 0.859375q0.90625 0 1.546875 -0.46875q0.65625 -0.484375 1.046875 -1.546875zm-5.484375 -2.703125l5.5 0q-0.109375 -1.234375 -0.625 -1.859375q-0.796875 -0.96875 -2.078125 -0.96875q-1.140625 0 -1.9375 0.78125q-0.78125 0.765625 -0.859375 2.046875zm8.000732 5.875l3.59375 -5.125l-3.328125 -4.734375l2.09375 0l1.515625 2.3125q0.421875 0.65625 0.671875 1.109375q0.421875 -0.609375 0.765625 -1.09375l1.65625 -2.328125l1.984375 0l-3.390625 4.640625l3.65625 5.21875l-2.046875 0l-2.03125 -3.0625l-0.53125 -0.828125l-2.59375 3.890625l-2.015625 0zm14.546875 0l-5.28125 -13.59375l1.953125 0l3.53125 9.875q0.4375 1.1875 0.71875 2.21875q0.3125 -1.109375 0.734375 -2.21875l3.671875 -9.875l1.84375 0l-5.328125 13.59375l-1.84375 0zm8.3497925 -11.6875l0 -1.90625l1.671875 0l0 1.90625l-1.671875 0zm0 11.6875l0 -9.859375l1.671875 0l0 9.859375l-1.671875 0zm10.879211 -3.171875l1.71875 0.21875q-0.40625 1.5 -1.515625 2.34375q-1.09375 0.828125 -2.8125 0.828125q-2.15625 0 -3.421875 -1.328125q-1.265625 -1.328125 -1.265625 -3.734375q0 -2.484375 1.265625 -3.859375q1.28125 -1.375 3.328125 -1.375q1.984375 0 3.234375 1.34375q1.25 1.34375 1.25 3.796875q0 0.140625 -0.015625 0.4375l-7.34375 0q0.09375 1.625 0.921875 2.484375q0.828125 0.859375 2.0625 0.859375q0.90625 0 1.546875 -0.46875q0.65625 -0.484375 1.046875 -1.546875zm-5.484375 -2.703125l5.5 0q-0.109375 -1.234375 -0.625 -1.859375q-0.796875 -0.96875 -2.078125 -0.96875q-1.140625 0 -1.9375 0.78125q-0.78125 0.765625 -0.859375 2.046875zm10.938232 5.875l-3.015625 -9.859375l1.71875 0l1.5625 5.6875l0.59375 2.125q0.03125 -0.15625 0.5 -2.03125l1.578125 -5.78125l1.71875 0l1.46875 5.71875l0.484375 1.890625l0.578125 -1.90625l1.6875 -5.703125l1.625 0l-3.078125 9.859375l-1.734375 0l-1.578125 -5.90625l-0.375 -1.671875l-2.0 7.578125l-1.734375 0z" fill-rule="nonzero"></path><path fill="#000000" fill-opacity="0.0" d="m503.6404 235.16798l232.40945 126.89763" fill-rule="nonzero"></path><path stroke="#4c4c4c" stroke-width="2.0" stroke-linejoin="round" stroke-linecap="butt" d="m503.6404 235.16798l221.87717 121.1469" fill-rule="evenodd"></path><path fill="#4c4c4c" stroke="#4c4c4c" stroke-width="2.0" stroke-linecap="butt" d="m723.93445 359.21432l9.549194 1.4501343l-6.3829346 -7.248993z" fill-rule="evenodd"></path></g></svg>

